<?xml version="1.0" encoding="iso-8859-1"?><svg height="512pt" viewBox="0 0 512 512" width="512pt" xmlns="http://www.w3.org/2000/svg"><path d="m250 70c5.519531 0 10-4.480469 10-10s-4.480469-10-10-10-10 4.480469-10 10 4.480469 10 10 10zm0 0"/><path d="m110 50c-5.519531 0-10 4.480469-10 10s4.480469 10 10 10 10-4.480469 10-10-4.480469-10-10-10zm0 0"/><path d="m70 50c-5.519531 0-10 4.480469-10 10s4.480469 10 10 10 10-4.480469 10-10-4.480469-10-10-10zm0 0"/><path d="m402 392h-15.746094c32.367188-21.515625 53.746094-58.304688 53.746094-100v-56c0-5.523438-4.476562-10-10-10h-70v-66h30c3.34375 0 6.464844-1.671875 8.320312-4.453125l23.703126-35.546875h27.976562c5.523438 0 10-4.476562 10-10 0-60.652344-49.347656-110-110-110h-320c-16.542969 0-30 13.457031-30 30v184c0 5.523438 4.476562 10 10 10s10-4.476562 10-10v-94h100v202c0 28.246094 13.082031 53.488281 33.5 70h-133.5v-98c0-5.523438-4.476562-10-10-10s-10 4.476562-10 10v168c0 27.570312 22.429688 50 50 50h452c5.523438 0 10-4.476562 10-10 0-60.652344-49.347656-110-110-110zm18-100c0 55.140625-44.859375 100-100 100s-100-44.859375-100-100v-46h30v56c0 16.542969 13.457031 30 30 30s30-13.457031 30-30c0-5.515625 4.484375-10 10-10s10 4.484375 10 10c0 16.542969 13.457031 30 30 30s30-13.457031 30-30v-56h30zm-50-46v56c0 5.515625-4.484375 10-10 10s-10-4.484375-10-10c0-16.542969-13.457031-30-30-30s-30 13.457031-30 30c0 5.515625-4.484375 10-10 10s-10-4.484375-10-10v-56zm-30-20h-40v-66h40zm44.648438-86h-129.296876l-13.335937-20h155.96875zm-364.648438-110c0-5.515625 4.484375-10 10-10h320c46.246094 0 84.457031 35.0625 89.449219 80-13.464844 0-362.1875 0-419.449219 0zm120 292v-202h77.976562l23.703126 35.546875c1.851562 2.78125 4.976562 4.453125 8.320312 4.453125h30v66h-70c-5.523438 0-10 4.476562-10 10v56c0 41.695312 21.378906 78.484375 53.746094 100h-43.746094c-38.597656 0-70-31.402344-70-70zm-90 170c-16.542969 0-30-13.457031-30-30v-50h382c46.246094 0 84.457031 35.0625 89.449219 80zm0 0"/><path d="m290 70h80c5.523438 0 10-4.476562 10-10s-4.476562-10-10-10h-80c-5.523438 0-10 4.476562-10 10s4.476562 10 10 10zm0 0"/><path d="m100 322v-132c0-16.542969-13.457031-30-30-30s-30 13.457031-30 30v132c0 16.542969 13.457031 30 30 30s30-13.457031 30-30zm-30-142c5.515625 0 10 4.484375 10 10v56h-20v-56c0-5.515625 4.484375-10 10-10zm-10 142v-56h20v56c0 5.515625-4.484375 10-10 10s-10-4.484375-10-10zm0 0"/><path d="m130 442h-60c-5.523438 0-10 4.476562-10 10s4.476562 10 10 10h60c5.523438 0 10-4.476562 10-10s-4.476562-10-10-10zm0 0"/><path d="m10 264c5.519531 0 10-4.480469 10-10s-4.480469-10-10-10-10 4.480469-10 10 4.480469 10 10 10zm0 0"/></svg>