<?xml version="1.0" encoding="iso-8859-1"?><svg height="512pt" viewBox="-7 0 512 512.001" width="512pt" xmlns="http://www.w3.org/2000/svg"><path d="m117.953125 221.109375c-43.835937 0-79.5 35.699219-79.5 79.582031 0 43.894532 35.664063 79.609375 79.5 79.609375s79.5-35.714843 79.5-79.609375c0-43.882812-35.664063-79.582031-79.5-79.582031zm0 144.203125c-35.574219 0-64.511719-28.992188-64.511719-64.621094 0-35.617187 28.9375-64.59375 64.511719-64.59375 35.570313 0 64.511719 28.976563 64.511719 64.59375 0 35.628906-28.9375 64.621094-64.511719 64.621094zm0 0"/><path d="m117.953125 270.800781c-16.464844 0-29.863281 13.410157-29.863281 29.886719 0 16.480469 13.398437 29.890625 29.863281 29.890625s29.863281-13.410156 29.863281-29.890625c0-16.476562-13.398437-29.886719-29.863281-29.886719zm0 44.789063c-8.203125 0-14.875-6.683594-14.875-14.898438 0-8.21875 6.671875-14.902344 14.875-14.902344s14.875 6.683594 14.875 14.902344c0 8.214844-6.671875 14.898438-14.875 14.898438zm0 0"/><path d="m117.953125 54.257812c-43.835937 0-79.5 35.699219-79.5 79.582032 0 43.878906 35.664063 79.578125 79.5 79.578125s79.5-35.699219 79.5-79.578125c0-43.882813-35.664063-79.582032-79.5-79.582032zm0 144.171876c-35.574219 0-64.511719-28.976563-64.511719-64.589844 0-35.617188 28.9375-64.59375 64.511719-64.59375 35.570313 0 64.511719 28.976562 64.511719 64.59375 0 35.613281-28.9375 64.589844-64.511719 64.589844zm0 0"/><path d="m117.953125 103.949219c-16.464844 0-29.863281 13.40625-29.863281 29.886719 0 16.480468 13.398437 29.890624 29.863281 29.890624s29.863281-13.410156 29.863281-29.890624c0-16.480469-13.398437-29.886719-29.863281-29.886719zm0 44.789062c-8.203125 0-14.875-6.683593-14.875-14.902343 0-8.214844 6.671875-14.898438 14.875-14.898438s14.875 6.683594 14.875 14.898438c0 8.21875-6.671875 14.902343-14.875 14.902343zm0 0"/><path d="m44.304688 50.335938h.425781c4.136719 0 7.492187-3.355469 7.492187-7.492188 0-4.140625-3.355468-7.496094-7.492187-7.496094h-.425781c-4.140626 0-7.496094 3.355469-7.496094 7.496094 0 4.136719 3.355468 7.492188 7.496094 7.492188zm0 0"/><path d="m189.164062 50.335938c4.140626 0 7.496094-3.355469 7.496094-7.492188 0-4.140625-3.355468-7.496094-7.496094-7.496094h-.421874c-4.140626 0-7.496094 3.355469-7.496094 7.496094 0 4.136719 3.355468 7.492188 7.496094 7.492188zm0 0"/><path d="m228.441406 245.089844c-4.140625 0-7.496094 3.355468-7.496094 7.492187l-.027343 149.164063c0 10.578125-8.589844 19.183594-19.152344 19.183594h-167.65625c-10.542969 0-19.121094-8.605469-19.121094-19.183594v-367.605469c0-10.5625 8.578125-19.152344 19.121094-19.152344h167.65625c10.558594 0 19.152344 8.589844 19.152344 19.152344v183.804687c0 4.136719 3.355469 7.492188 7.492187 7.492188 4.140625 0 7.496094-3.355469 7.496094-7.492188v-183.804687c0-18.824219-15.316406-34.140625-34.140625-34.140625h-167.65625c-18.808594 0-34.109375 15.316406-34.109375 34.140625v367.605469c0 18.84375 15.300781 34.171875 34.109375 34.171875h27.464844l-6.945313 25.046875-36.035156-.007813c-10.25 0-18.59375 8.359375-18.59375 18.632813v13.777344c0 10.273437 8.339844 18.632812 18.59375 18.632812h198.6875c10.269531 0 18.625-8.359375 18.625-18.632812v-13.777344c0-10.277344-8.355469-18.636719-18.625-18.636719l-36.035156.011719-6.945313-25.050782h27.464844c18.824219 0 34.140625-15.324218 34.140625-34.164062l.027344-149.164062c0-4.140626-3.355469-7.492188-7.492188-7.496094zm-151.3125 190.824218h81.621094l6.945312 25.054688-49.328124.015625-46.1875-.015625zm140.152344 40.027344c1.972656 0 3.636719 1.671875 3.636719 3.648438v13.777344c0 1.976562-1.664063 3.644531-3.636719 3.644531h-198.6875c-1.957031 0-3.605469-1.667969-3.605469-3.644531v-13.777344c0-1.976563 1.648438-3.648438 3.601563-3.648438l97.773437.027344h.003907zm0 0"/><path d="m496.945312 401.75.054688-149.164062c0-4.136719-3.351562-7.492188-7.492188-7.496094-4.136718 0-7.492187 3.351562-7.496093 7.492187l-.054688 149.164063c0 10.578125-8.578125 19.183594-19.125 19.183594h-167.652343c-10.5625 0-19.152344-8.605469-19.152344-19.183594v-367.605469c0-10.5625 8.589844-19.152344 19.152344-19.152344h167.652343c10.546875 0 19.125 8.589844 19.125 19.152344v183.804687c0 4.136719 3.355469 7.492188 7.492188 7.492188 4.140625 0 7.496093-3.355469 7.496093-7.492188v-183.804687c0-18.824219-15.304687-34.140625-34.113281-34.140625h-167.652343c-18.824219 0-34.140626 15.316406-34.140626 34.140625v367.605469c0 18.84375 15.3125 34.171875 34.140626 34.171875h27.464843l-6.945312 25.046875-36.035157-.007813c-10.269531 0-18.625 8.359375-18.625 18.632813v13.777344c0 10.273437 8.355469 18.632812 18.625 18.632812h198.6875c10.25 0 18.59375-8.359375 18.59375-18.632812v-13.777344c0-10.273438-8.34375-18.632813-18.597656-18.632813l-36.03125.007813-6.949218-25.046875h27.464843c18.808594-.003907 34.113281-15.328125 34.113281-34.167969zm-158.75 34.164062h81.621094l6.945313 25.054688-49.324219.015625-46.1875-.015625zm140.15625 40.027344c1.953126 0 3.605469 1.671875 3.605469 3.648438v13.777344c0 1.976562-1.652343 3.644531-3.605469 3.644531h-198.691406c-1.96875 0-3.632812-1.667969-3.632812-3.644531v-13.777344c0-1.976563 1.664062-3.648438 3.632812-3.648438l97.773438.027344h.003906zm0 0"/><path d="m378.992188 221.109375c-43.835938 0-79.5 35.699219-79.5 79.582031 0 43.894532 35.664062 79.609375 79.5 79.609375 43.851562 0 79.527343-35.714843 79.527343-79.609375 0-43.882812-35.675781-79.582031-79.527343-79.582031zm0 144.203125c-35.574219 0-64.511719-28.992188-64.511719-64.621094 0-35.617187 28.9375-64.59375 64.511719-64.59375 35.585937 0 64.539062 28.976563 64.539062 64.59375 0 35.628906-28.953125 64.621094-64.539062 64.621094zm0 0"/><path d="m378.992188 270.800781c-16.464844 0-29.863282 13.410157-29.863282 29.886719 0 16.480469 13.394532 29.890625 29.863282 29.890625 16.480468 0 29.890624-13.410156 29.890624-29.890625 0-16.476562-13.410156-29.886719-29.890624-29.886719zm0 44.789063c-8.203126 0-14.875-6.683594-14.875-14.898438 0-8.21875 6.671874-14.902344 14.875-14.902344 8.21875 0 14.902343 6.683594 14.902343 14.902344 0 8.214844-6.683593 14.898438-14.902343 14.898438zm0 0"/><path d="m378.992188 54.257812c-43.835938 0-79.5 35.699219-79.5 79.582032 0 43.878906 35.664062 79.578125 79.5 79.578125 43.851562 0 79.527343-35.699219 79.527343-79.578125 0-43.882813-35.675781-79.582032-79.527343-79.582032zm0 144.171876c-35.574219 0-64.511719-28.976563-64.511719-64.589844 0-35.617188 28.9375-64.59375 64.511719-64.59375 35.585937 0 64.539062 28.976562 64.539062 64.59375 0 35.613281-28.953125 64.589844-64.539062 64.589844zm0 0"/><path d="m378.992188 103.949219c-16.464844 0-29.863282 13.40625-29.863282 29.886719 0 16.480468 13.394532 29.890624 29.863282 29.890624 16.480468 0 29.890624-13.410156 29.890624-29.890624 0-16.480469-13.410156-29.886719-29.890624-29.886719zm0 44.789062c-8.203126 0-14.875-6.683593-14.875-14.902343 0-8.214844 6.671874-14.898438 14.875-14.898438 8.21875 0 14.902343 6.683594 14.902343 14.898438 0 8.21875-6.683593 14.902343-14.902343 14.902343zm0 0"/><path d="m305.371094 50.335938h.398437c4.136719 0 7.492188-3.355469 7.492188-7.492188 0-4.140625-3.355469-7.496094-7.492188-7.496094h-.398437c-4.136719 0-7.492188 3.355469-7.492188 7.496094 0 4.136719 3.355469 7.492188 7.492188 7.492188zm0 0"/><path d="m450.234375 50.335938c4.136719 0 7.492187-3.355469 7.492187-7.492188 0-4.140625-3.355468-7.496094-7.492187-7.496094h-.425781c-4.140625 0-7.492188 3.355469-7.492188 7.496094 0 4.136719 3.351563 7.492188 7.492188 7.492188zm0 0"/></svg>