<?xml version="1.0" encoding="iso-8859-1"?><svg height="512pt" viewBox="0 0 512 512" width="512pt" xmlns="http://www.w3.org/2000/svg"><path d="m462 132h-20c-79.804688 0-155.351562 32.613281-210 90.027344v-142.027344h50c38.597656 0 70-31.402344 70-70 0-5.523438-4.476562-10-10-10h-320c-5.523438 0-10 4.476562-10 10 0 38.597656 31.402344 70 70 70h50v46c0 5.523438 4.476562 10 10 10s10-4.476562 10-10v-6h60v112h-60v-26c0-5.523438-4.476562-10-10-10s-10 4.476562-10 10v26h-52v-10c0-16.542969-13.457031-30-30-30h-20c-16.542969 0-30 13.457031-30 30v120c0 16.542969 13.457031 30 30 30h20c16.542969 0 30-13.46875 30-30.011719v-10h86.25c-9.453125 28.957031-14.25 59.175781-14.25 90.011719 0 27.570312 22.429688 50 50 50h10c0 22.054688 17.945312 40 40 40s40-17.945312 40-40h100c0 22.054688 17.945312 40 40 40s40-17.945312 40-40c0-.335938-.011719-.667969-.019531-1.003906 22.804687-4.636719 40.019531-24.84375 40.019531-48.996094v-240c0-27.570312-22.429688-50-50-50zm-428.996094-112.011719h297.992188c-4.644532 22.796875-24.851563 40.011719-48.996094 40.011719h-200c-24.144531 0-44.351562-17.214844-48.996094-40.011719zm118.996094 80.011719v-20h60v20zm-92 242c0 5.515625-4.484375 10-10 10h-20c-5.515625 0-10-4.484375-10-10v-120c0-5.515625 4.484375-10 10-10h20c5.515625 0 10 4.484375 10 10zm20-90.011719h127.035156c-13.5 18.621094-24.707031 38.746094-33.429687 60.011719h-93.605469zm172 240.011719c-11.027344 0-20-8.980469-20-20.011719h40c0 11.03125-8.972656 20.011719-20 20.011719zm-50-40c-16.542969 0-30-13.457031-30-30 0-146.246094 115.898438-264.496094 260-269.792969v299.792969zm230 40c-11.027344 0-20-8.980469-20-20.011719h40c0 11.03125-8.972656 20.011719-20 20.011719zm60-70c0 16.542969-13.457031 30-30 30h-10v-300h10c16.542969 0 30 13.457031 30 30zm0 0"/><path d="m382 372h-80c-16.542969 0-30 13.457031-30 30s13.457031 30 30 30h80c16.542969 0 30-13.457031 30-30s-13.457031-30-30-30zm-90 30c0-5.515625 4.484375-10 10-10h30v20h-30c-5.515625 0-10-4.484375-10-10zm90 10h-30v-20h30c5.515625 0 10 4.484375 10 10s-4.484375 10-10 10zm0 0"/><path d="m142 176c5.519531 0 10-4.480469 10-10s-4.480469-10-10-10-10 4.480469-10 10 4.480469 10 10 10zm0 0"/></svg>