<svg width="15" height="26" viewBox="0 0 15 26" fill="none" xmlns="http://www.w3.org/2000/svg">
<path d="M12.6057 26C12.6057 26 14.8749 26 14.8749 23.6365V2.36354C14.8749 0 12.6057 0 12.6057 0H2.39422C2.39422 0 0.125 0 0.125 2.36354V23.6365C0.125 26 2.39422 26 2.39422 26H12.6057ZM7.49997 25.0159C6.87367 25.0159 6.36537 24.4872 6.36537 23.8359C6.36537 23.1845 6.87367 22.6559 7.49997 22.6559C8.12626 22.6559 8.6346 23.1845 8.6346 23.8359C8.6346 24.4872 8.1263 25.0159 7.49997 25.0159ZM4.66345 1.44077C4.66345 1.29445 4.77579 1.17998 4.91421 1.17998H10.0847C10.2231 1.17998 10.3365 1.29682 10.3365 1.44077V1.5104C10.3365 1.65789 10.2242 1.77118 10.0858 1.77118H4.91421C4.77693 1.77118 4.66345 1.65435 4.66345 1.5104V1.44077ZM1.25963 2.94998H13.7403V21.8299H1.25963V2.94998Z" fill="#868484" fill-opacity="0.52"/>
</svg>
