<svg width="24" height="19" viewBox="0 0 24 19" fill="none" xmlns="http://www.w3.org/2000/svg">
<path d="M22.5703 4.34016H6.91643C6.12575 4.34016 5.48682 3.48173 5.48682 2.43253C5.48682 1.38334 6.12575 0.524902 6.91643 0.524902H22.5703C23.361 0.524902 23.9999 1.38334 23.9999 2.43253C23.9999 3.48173 23.361 4.34016 22.5703 4.34016Z" fill="white"/>
<path d="M2.0366 4.86446C3.16138 4.86446 4.07319 3.77551 4.07319 2.43223C4.07319 1.08895 3.16138 0 2.0366 0C0.911816 0 0 1.08895 0 2.43223C0 3.77551 0.911816 4.86446 2.0366 4.86446Z" fill="white"/>
<path d="M22.5703 11.4075H6.91643C6.12575 11.4075 5.48682 10.5491 5.48682 9.49992C5.48682 8.45072 6.12575 7.59229 6.91643 7.59229H22.5703C23.361 7.59229 23.9999 8.45072 23.9999 9.49992C23.9999 10.5491 23.361 11.4075 22.5703 11.4075Z" fill="white"/>
<path d="M2.0366 11.9323C3.16138 11.9323 4.07319 10.8434 4.07319 9.5001C4.07319 8.15682 3.16138 7.06787 2.0366 7.06787C0.911816 7.06787 0 8.15682 0 9.5001C0 10.8434 0.911816 11.9323 2.0366 11.9323Z" fill="white"/>
<path d="M22.5703 18.4754H6.91643C6.12575 18.4754 5.48682 17.617 5.48682 16.5678C5.48682 15.5186 6.12575 14.6602 6.91643 14.6602H22.5703C23.361 14.6602 23.9999 15.5186 23.9999 16.5678C23.9999 17.617 23.361 18.4754 22.5703 18.4754Z" fill="white"/>
<path d="M2.0366 19.0002C3.16138 19.0002 4.07319 17.9113 4.07319 16.568C4.07319 15.2247 3.16138 14.1357 2.0366 14.1357C0.911816 14.1357 0 15.2247 0 16.568C0 17.9113 0.911816 19.0002 2.0366 19.0002Z" fill="white"/>
</svg>
