<svg width="19" height="19" viewBox="0 0 19 19" fill="none" xmlns="http://www.w3.org/2000/svg">
<path d="M14.778 7.74074V5.27776C14.778 2.39259 12.3854 0 9.50023 0C6.61503 0 4.22244 2.39259 4.22244 5.2778V7.74078C3.02612 7.74078 2.11133 8.65557 2.11133 9.85189V16.8889C2.11133 18.0852 3.02612 19 4.22244 19H14.778C15.9743 19 16.8891 18.0852 16.8891 16.8889V9.85185C16.8891 8.72593 15.9743 7.74074 14.778 7.74074ZM9.85207 13.3V15.1296C9.85207 15.3407 9.71132 15.4815 9.50023 15.4815C9.28914 15.4815 9.1484 15.3407 9.1484 15.1296V13.3C8.72618 13.1593 8.4447 12.737 8.4447 12.3148C8.4447 11.7519 8.93731 11.2593 9.50027 11.2593C10.0632 11.2593 10.5558 11.7519 10.5558 12.3148C10.5558 12.8074 10.2743 13.1593 9.85207 13.3ZM12.6669 7.74074H6.33355V5.27776C6.33355 3.51852 7.74096 2.11111 9.5002 2.11111C11.2594 2.11111 12.6668 3.51852 12.6668 5.27776V7.74074H12.6669Z" fill="#919090" fill-opacity="0.64"/>
</svg>
