<svg width="182" height="50" viewBox="0 0 182 50" fill="none" xmlns="http://www.w3.org/2000/svg">
<g filter="url(#filter0_d)">
<path d="M52.3253 30.4961C52.6085 31.2188 52.7501 32.0586 52.7501 33.0156C52.7501 33.9629 52.6281 34.793 52.3839 35.5059C52.1495 36.2188 51.798 36.8145 51.3292 37.293C50.8702 37.7715 50.3478 38.1719 49.7618 38.4941C49.1759 38.8066 48.4728 39.0508 47.6525 39.2266C46.1876 39.5391 44.4591 39.6953 42.4669 39.6953H35.1427V16.1553H41.0314C45.924 16.165 49.1027 16.9902 50.5675 18.6309C51.3683 19.5293 51.7687 20.667 51.7687 22.0439C51.7687 25.0225 50.0988 26.7119 46.7589 27.1123C49.7472 27.5127 51.6027 28.6406 52.3253 30.4961ZM48.3849 33.0156C48.3849 32.1953 48.2872 31.5361 48.0919 31.0381C47.8966 30.54 47.6378 30.1445 47.3156 29.8516C46.9933 29.5586 46.5685 29.3242 46.0411 29.1484C45.1427 28.8555 43.9269 28.7139 42.3937 28.7236H39.6251V36.7363H42.0128C43.9562 36.7363 45.3136 36.6045 46.0851 36.3408C46.8956 36.0576 47.4572 35.6719 47.7697 35.1836C48.1798 34.5586 48.3849 33.8359 48.3849 33.0156ZM47.4474 24.1533C47.7208 23.665 47.8527 23.1182 47.8429 22.5127C47.8429 21.9072 47.7697 21.4238 47.6232 21.0625C47.4767 20.7012 47.257 20.4082 46.964 20.1836C46.671 19.9492 46.3585 19.7588 46.0265 19.6123C45.6847 19.4658 45.2697 19.3584 44.7814 19.29C43.9318 19.1729 42.9698 19.1143 41.8956 19.1143H39.6251V25.9258H42.3937C45.1085 25.9258 46.7931 25.335 47.4474 24.1533ZM65.9777 29.3096C65.9777 27.3564 65.7384 26.1162 65.2599 25.5889C64.7911 25.0713 64.0441 24.8125 63.0187 24.8125C61.0656 24.8125 59.2198 25.3203 57.4816 26.3359L56.3243 23.6699C58.3165 22.4883 60.5822 21.8975 63.1212 21.8975C65.7775 21.9072 67.6427 22.5762 68.7169 23.9043C69.7325 25.1738 70.2404 27.1855 70.2404 29.9395V39.6953H66.9591L66.3732 37.293C65.7677 38.2109 65.0646 38.8994 64.2638 39.3584C63.4728 39.8174 62.4572 40.0469 61.2169 40.0469C59.3224 40.0469 57.8478 39.5684 56.7931 38.6113C55.7482 37.6543 55.2257 36.2578 55.2257 34.4219C55.2355 31.8047 56.549 30.1055 59.1661 29.3242C59.9279 29.0898 60.7775 28.958 61.715 28.9287C63.2384 28.9287 64.6593 29.0557 65.9777 29.3096ZM65.9777 31.4775L64.9669 31.375L64.3224 31.3164C64.0294 31.2969 63.7267 31.2871 63.4142 31.2871C63.1115 31.2871 62.7648 31.3066 62.3741 31.3457C61.9835 31.3848 61.5978 31.4678 61.2169 31.5947C60.8458 31.7119 60.5431 31.873 60.3087 32.0781C59.7814 32.5273 59.5177 33.2012 59.5177 34.0996C59.5177 36.1016 60.4503 37.1025 62.3156 37.1025C63.087 37.1025 63.756 36.9463 64.3224 36.6338C64.8986 36.3115 65.4503 35.8672 65.9777 35.3008V31.4775ZM73.9611 25.252V22.3369H86.1925V25.3838L78.1652 36.7803H86.295V39.6953H73.6827V36.6191L81.9298 25.252H73.9611ZM99.757 29.3096C99.757 27.3564 99.5177 26.1162 99.0392 25.5889C98.5704 25.0713 97.8234 24.8125 96.798 24.8125C94.8448 24.8125 92.9991 25.3203 91.2609 26.3359L90.1036 23.6699C92.0958 22.4883 94.3615 21.8975 96.9005 21.8975C99.5568 21.9072 101.422 22.5762 102.496 23.9043C103.512 25.1738 104.02 27.1855 104.02 29.9395V39.6953H100.738L100.152 37.293C99.547 38.2109 98.8439 38.8994 98.0431 39.3584C97.2521 39.8174 96.2365 40.0469 94.9962 40.0469C93.1017 40.0469 91.6271 39.5684 90.5724 38.6113C89.5275 37.6543 89.005 36.2578 89.005 34.4219C89.0148 31.8047 90.3282 30.1055 92.9454 29.3242C93.7072 29.0898 94.5568 28.958 95.4943 28.9287C97.0177 28.9287 98.4386 29.0557 99.757 29.3096ZM99.757 31.4775L98.7462 31.375L98.1017 31.3164C97.8087 31.2969 97.506 31.2871 97.1935 31.2871C96.8907 31.2871 96.5441 31.3066 96.1534 31.3457C95.7628 31.3848 95.3771 31.4678 94.9962 31.5947C94.6251 31.7119 94.3224 31.873 94.088 32.0781C93.5607 32.5273 93.297 33.2012 93.297 34.0996C93.297 36.1016 94.2296 37.1025 96.0948 37.1025C96.8663 37.1025 97.5353 36.9463 98.1017 36.6338C98.6779 36.3115 99.2296 35.8672 99.757 35.3008V31.4775ZM116.354 25.6914C115.133 25.6914 113.854 26.2578 112.516 27.3906V39.6953H108.238V22.3369H111.798L112.325 25.1348C112.872 24.2266 113.502 23.5234 114.215 23.0254C114.928 22.5176 115.836 22.2637 116.94 22.2637C117.164 22.2637 117.511 22.2734 117.98 22.293V25.8672C117.706 25.75 117.164 25.6914 116.354 25.6914ZM120.483 39.8553C120.19 39.8553 119.936 39.7486 119.723 39.5353C119.523 39.322 119.423 39.062 119.423 38.7553C119.423 38.462 119.523 38.2086 119.723 37.9953C119.936 37.782 120.19 37.6753 120.483 37.6753C120.79 37.6753 121.05 37.782 121.263 37.9953C121.476 38.2086 121.583 38.4686 121.583 38.7753C121.583 39.0686 121.476 39.322 121.263 39.5353C121.05 39.7486 120.79 39.8553 120.483 39.8553ZM128.246 30.0153C128.899 30.0153 129.499 30.1486 130.046 30.4153C130.606 30.682 131.046 31.0753 131.366 31.5953C131.699 32.1153 131.866 32.7286 131.866 33.4353V39.6953H130.506V34.0353C130.506 32.182 129.679 31.2553 128.026 31.2553C127.066 31.2553 126.346 31.5953 125.866 32.2753C125.386 32.9553 125.146 33.8686 125.146 35.0153V39.6953H123.786V30.3353H125.146V31.8953C125.466 31.2953 125.886 30.8353 126.406 30.5153C126.939 30.182 127.552 30.0153 128.246 30.0153ZM138.568 30.0153C139.408 30.0153 140.168 30.222 140.848 30.6353C141.528 31.0486 142.061 31.6153 142.448 32.3353C142.834 33.042 143.028 33.8353 143.028 34.7153C143.028 34.9686 143.021 35.162 143.008 35.2953H135.308C135.361 36.2553 135.674 37.0753 136.248 37.7553C136.821 38.4353 137.601 38.7753 138.588 38.7753C139.388 38.7753 140.048 38.6286 140.568 38.3353C141.101 38.0286 141.528 37.6086 141.848 37.0753L142.928 37.7953C142.488 38.4886 141.908 39.0353 141.188 39.4353C140.468 39.822 139.614 40.0153 138.628 40.0153C137.721 40.0153 136.914 39.802 136.208 39.3753C135.501 38.9486 134.948 38.3553 134.548 37.5953C134.148 36.8353 133.948 35.9753 133.948 35.0153C133.948 34.0553 134.141 33.1953 134.528 32.4353C134.928 31.6753 135.474 31.082 136.168 30.6553C136.874 30.2286 137.674 30.0153 138.568 30.0153ZM141.668 34.1753C141.534 33.202 141.208 32.4753 140.688 31.9953C140.168 31.502 139.461 31.2553 138.568 31.2553C137.701 31.2553 136.988 31.5353 136.428 32.0953C135.881 32.642 135.534 33.3353 135.388 34.1753H141.668ZM145.536 39.6953V31.5753H143.936V30.3353H145.536V27.2353H146.896V30.3353H149.056V31.5753H146.896V39.6953H145.536ZM151.303 39.8553C151.01 39.8553 150.757 39.7486 150.543 39.5353C150.343 39.322 150.243 39.062 150.243 38.7553C150.243 38.462 150.343 38.2086 150.543 37.9953C150.757 37.782 151.01 37.6753 151.303 37.6753C151.61 37.6753 151.87 37.782 152.083 37.9953C152.297 38.2086 152.403 38.4686 152.403 38.7753C152.403 39.0686 152.297 39.322 152.083 39.5353C151.87 39.7486 151.61 39.8553 151.303 39.8553ZM162.826 30.3353V39.6953H161.466V38.1353C161.146 38.7353 160.719 39.202 160.186 39.5353C159.666 39.8553 159.059 40.0153 158.366 40.0153C157.712 40.0153 157.106 39.882 156.546 39.6153C155.999 39.3486 155.559 38.9553 155.226 38.4353C154.906 37.9153 154.746 37.302 154.746 36.5953V30.3353H156.106V35.9953C156.106 37.8486 156.932 38.7753 158.586 38.7753C159.546 38.7753 160.266 38.4353 160.746 37.7553C161.226 37.0753 161.466 36.162 161.466 35.0153V30.3353H162.826ZM174.048 30.3353V39.6953H172.688V38.3153C172.301 38.8486 171.828 39.2686 171.268 39.5753C170.708 39.8686 170.095 40.0153 169.428 40.0153C168.535 40.0153 167.735 39.802 167.028 39.3753C166.321 38.9486 165.768 38.3553 165.368 37.5953C164.968 36.8353 164.768 35.9686 164.768 34.9953C164.768 34.0353 164.961 33.182 165.348 32.4353C165.748 31.6753 166.295 31.082 166.988 30.6553C167.695 30.2286 168.495 30.0153 169.388 30.0153C170.068 30.0153 170.688 30.1686 171.248 30.4753C171.821 30.7686 172.301 31.1886 172.688 31.7353V30.3353H174.048ZM169.388 38.7753C170.028 38.7753 170.595 38.6153 171.088 38.2953C171.595 37.9753 171.988 37.5286 172.268 36.9553C172.548 36.382 172.688 35.7353 172.688 35.0153C172.688 34.2953 172.548 33.6486 172.268 33.0753C171.988 32.502 171.595 32.0553 171.088 31.7353C170.595 31.4153 170.028 31.2553 169.388 31.2553C168.761 31.2553 168.201 31.4153 167.708 31.7353C167.215 32.0553 166.828 32.502 166.548 33.0753C166.268 33.6353 166.128 34.2753 166.128 34.9953C166.128 35.7286 166.268 36.382 166.548 36.9553C166.828 37.5286 167.215 37.9753 167.708 38.2953C168.201 38.6153 168.761 38.7753 169.388 38.7753Z" fill="white"/>
</g>
<path d="M29.7749 27.5836L30.317 26.571C31.0188 26.84 31.791 26.9111 32.5363 26.7751C33.2817 26.6392 33.9669 26.3024 34.5057 25.8072C35.5182 24.7865 35.035 23.4322 34.6114 22.2409C33.9673 20.4779 33.696 19.3244 35.4215 18.4226C35.4847 18.3902 35.5402 18.3463 35.5846 18.2936C35.629 18.2408 35.6614 18.1804 35.6798 18.1158C35.6983 18.0512 35.7024 17.9838 35.692 17.9177C35.6816 17.8516 35.6568 17.7881 35.6192 17.731C35.583 17.6736 35.535 17.6234 35.4779 17.5831C35.4208 17.5428 35.3556 17.5134 35.2862 17.4964C35.2167 17.4795 35.1443 17.4753 35.0731 17.4842C35.0019 17.4931 34.9334 17.5149 34.8713 17.5483C32.3039 18.9266 33.0358 21.025 33.5716 22.555C34.0196 23.7814 34.241 24.5769 33.7003 25.1194C33.331 25.4549 32.8634 25.6829 32.3554 25.7751C31.8474 25.8674 31.3212 25.8198 30.8421 25.6384L31.0754 25.2026C31.1096 25.1443 31.1302 25.08 31.1358 25.0139C31.1415 24.9478 31.1322 24.8813 31.1084 24.8187L29.4423 20.258C29.4174 20.1919 29.3784 20.131 29.3277 20.0791C29.277 20.0271 29.2156 19.985 29.147 19.9552L13.8113 13.654C13.6839 13.5991 13.5386 13.5917 13.4055 13.6333C13.2724 13.6749 13.1617 13.7622 13.0963 13.8773L8.59148 22.3401C8.55733 22.3984 8.53675 22.4627 8.53108 22.5288C8.52541 22.5949 8.53477 22.6614 8.55855 22.724C8.58199 22.7892 8.62012 22.849 8.67042 22.8995C8.72072 22.9501 8.78205 22.9901 8.85035 23.0171L24.1966 29.3472C24.3227 29.3971 24.4643 29.4023 24.5944 29.3617L29.475 27.8374C29.541 27.8161 29.6017 27.7827 29.6532 27.7391C29.7048 27.6954 29.7462 27.6425 29.7749 27.5836ZM24.4412 28.342L9.82625 22.3387L13.8507 14.7731L28.4831 20.7924L29.9881 24.9124L28.897 26.9504L24.4412 28.342Z" fill="white"/>
<path d="M26.343 23.4037C26.1701 23.3251 25.982 23.2787 25.7897 23.2674C25.5973 23.256 25.4045 23.2798 25.2221 23.3375C25.0409 23.3936 24.8736 23.4824 24.7298 23.5988C24.586 23.7152 24.4687 23.8567 24.3845 24.0154C24.2139 24.3386 24.1882 24.7111 24.3129 25.0518C24.4366 25.3896 24.7003 25.6682 25.0461 25.8263C25.2161 25.9089 25.4027 25.9585 25.5943 25.9721C25.7858 25.9857 25.9784 25.963 26.1601 25.9053C26.3438 25.8484 26.5132 25.758 26.6583 25.6393C26.8033 25.5206 26.9211 25.3762 27.0045 25.2146C27.1755 24.8932 27.2018 24.5223 27.0779 24.1829C26.9539 23.8436 26.6897 23.5634 26.343 23.4037ZM25.5368 24.9258C25.4921 24.9068 25.4521 24.8796 25.4192 24.8458C25.3863 24.812 25.3612 24.7724 25.3455 24.7293C25.3298 24.6863 25.3237 24.6407 25.3277 24.5954C25.3317 24.5501 25.3457 24.506 25.3688 24.4659C25.3867 24.4252 25.4143 24.3888 25.4495 24.3594C25.4847 24.3299 25.5266 24.3081 25.5721 24.2956C25.6182 24.2807 25.6672 24.2746 25.716 24.2778C25.7647 24.2809 25.8123 24.2931 25.8558 24.3138C25.9435 24.3549 26.0106 24.4257 26.0434 24.5113C26.0695 24.5983 26.0626 24.6909 26.0238 24.7737C25.9793 24.8547 25.9028 24.9168 25.8101 24.9472C25.7195 24.9736 25.6213 24.9659 25.5368 24.9258Z" fill="white"/>
<path d="M24.1121 21.816C24.1444 21.7563 24.1636 21.6913 24.1686 21.6247C24.1736 21.5581 24.1642 21.4912 24.1411 21.428C24.118 21.3647 24.0816 21.3064 24.034 21.2562C23.9863 21.206 23.9284 21.1651 23.8636 21.1357L15.5461 17.3287C15.4153 17.2711 15.2653 17.2628 15.1279 17.3057C14.9906 17.3486 14.8767 17.4393 14.8104 17.5584C14.7451 17.6774 14.7333 17.8154 14.7775 17.9423C14.8251 18.0717 14.9263 18.1783 15.0589 18.2387L23.3764 22.0458C23.5073 22.1034 23.6573 22.1116 23.7946 22.0687C23.9319 22.0258 24.0458 21.9352 24.1121 21.816Z" fill="white"/>
<path d="M22.1104 24.4267L16.1912 21.7173C16.0948 21.6743 15.9868 21.6584 15.8807 21.6715C15.7746 21.6847 15.675 21.7263 15.5943 21.7913C15.5136 21.8563 15.4552 21.9418 15.4265 22.0372C15.3978 22.1325 15.4001 22.2336 15.4329 22.3278C15.4805 22.4572 15.5817 22.5638 15.7143 22.6242L21.6336 25.3335C21.7645 25.3911 21.9145 25.3993 22.0518 25.3564C22.1891 25.3136 22.303 25.2229 22.3693 25.1037C22.4007 25.0436 22.4189 24.9783 22.4229 24.9117C22.4268 24.845 22.4165 24.7783 22.3924 24.7154C22.3684 24.6524 22.3311 24.5945 22.2827 24.545C22.2343 24.4954 22.1757 24.4552 22.1104 24.4267Z" fill="white"/>
<defs>
<filter id="filter0_d" x="31.1427" y="16.1553" width="146.905" height="31.8916" filterUnits="userSpaceOnUse" color-interpolation-filters="sRGB">
<feFlood flood-opacity="0" result="BackgroundImageFix"/>
<feColorMatrix in="SourceAlpha" type="matrix" values="0 0 0 0 0 0 0 0 0 0 0 0 0 0 0 0 0 0 127 0"/>
<feOffset dy="4"/>
<feGaussianBlur stdDeviation="2"/>
<feColorMatrix type="matrix" values="0 0 0 0 0 0 0 0 0 0 0 0 0 0 0 0 0 0 0.25 0"/>
<feBlend mode="normal" in2="BackgroundImageFix" result="effect1_dropShadow"/>
<feBlend mode="normal" in="SourceGraphic" in2="effect1_dropShadow" result="shape"/>
</filter>
</defs>
</svg>
