<svg width="22" height="22" viewBox="0 0 22 22" fill="none" xmlns="http://www.w3.org/2000/svg">
<path d="M15.3541 11.55H6.64563C6.34193 11.55 6.09563 11.3037 6.09563 11C6.09563 10.6963 6.34193 10.45 6.64563 10.45H15.3541C15.6577 10.45 15.904 10.6963 15.904 11C15.904 11.3037 15.6577 11.55 15.3541 11.55ZM22 11C22 4.93453 17.0655 0 11 0C4.93453 0 0 4.93453 0 11C0 17.0655 4.93453 22 11 22C17.0655 22 22 17.0655 22 11ZM20.8999 11C20.8999 16.4588 16.4588 20.9 11 20.9C5.54108 20.9 1.1 16.4588 1.1 11C1.1 5.54108 5.54108 1.1 11 1.1C16.4588 1.1 20.8999 5.54108 20.8999 11Z" fill="#868484"/>
</svg>
