<svg width="36" height="33" viewBox="0 0 36 33" fill="none" xmlns="http://www.w3.org/2000/svg">
<path d="M22.6864 3.70721C22.6864 3.61313 22.6032 3.55273 22.5005 3.55273H13.4237C13.321 3.55273 13.2378 3.61313 13.2378 3.70721C13.2378 3.80128 13.321 3.86168 13.4237 3.86168H22.5005C22.6017 3.86168 22.6864 3.80259 22.6864 3.70721Z" fill="#868484"/>
<path d="M15.7506 3.11457C15.816 3.1718 15.9156 3.1786 15.99 3.13094L17.9585 1.81847L19.8348 3.12955C19.869 3.15133 19.9091 3.16362 19.9478 3.16362C19.9968 3.16362 20.0474 3.14454 20.0846 3.11048L21.5029 1.72308C21.5728 1.65357 21.5683 1.5459 21.494 1.48187C21.4197 1.41506 21.3022 1.42193 21.2309 1.48867L19.927 2.7643L18.0744 1.4709C18.009 1.42595 17.9183 1.42456 17.8529 1.4682L15.8992 2.7711L14.6251 1.629C14.5522 1.56498 14.4333 1.56359 14.3619 1.6331C14.2906 1.69852 14.2921 1.80758 14.3649 1.87299L15.7506 3.11457Z" fill="#868484"/>
<path d="M18.0714 8.01531L19.7724 4.40497C19.8125 4.31908 19.7694 4.21829 19.6757 4.18013C19.5776 4.14198 19.4705 4.18422 19.4304 4.27011L17.89 7.53699L16.1758 4.26463C16.1312 4.18013 16.0212 4.14337 15.9275 4.18422C15.8353 4.22377 15.7952 4.32595 15.8398 4.41045L17.731 8.0208C17.7622 8.08073 17.8276 8.11757 17.899 8.11757C17.9777 8.12568 18.0402 8.07803 18.0714 8.01531Z" fill="#868484"/>
<path d="M20.5289 10.2541C20.6133 10.129 20.669 9.98236 20.669 9.82526V9.77343C20.669 9.32229 20.2541 8.95936 19.7621 8.95936H19.4631L24.5734 4.0061C24.8112 3.77439 24.844 3.42258 24.6521 3.15812L22.5512 0.287088C22.4129 0.0977042 22.181 0 21.9327 0H14.0319C13.7941 0 13.5695 0.0873545 13.4298 0.265848L11.1595 3.14499C10.9514 3.40937 10.9781 3.77208 11.2234 4.01058L16.3348 8.95944H16.2234C15.7312 8.95944 15.3607 9.32237 15.3607 9.77351V9.82533C15.3607 9.98243 15.3942 10.1291 15.4786 10.2542C9.77529 11.3301 5.46558 15.9688 5.46558 21.5094C5.46558 27.8455 11.0846 32.9999 17.9967 32.9999C24.9103 32.9999 30.5343 27.8455 30.5343 21.5094C30.5344 15.9676 26.2326 11.3298 20.5289 10.2541ZM14.4125 1.31302H21.5358L23.0865 3.45324L17.899 8.48188L12.725 3.46638L14.4125 1.31302ZM17.9927 31.3658C12.0648 31.3658 7.24174 26.9433 7.24174 21.5094C7.24174 16.0755 12.0649 11.6543 17.9927 11.6543C23.922 11.6543 28.7437 16.0742 28.7437 21.5094C28.7437 26.9446 23.9205 31.3658 17.9927 31.3658Z" fill="#868484"/>
<path d="M17.9928 12.6519C12.6641 12.6519 8.32861 16.6261 8.32861 21.5107C8.32861 26.3952 12.664 30.3695 17.9928 30.3695C23.3215 30.3695 27.6569 26.3939 27.6569 21.5107C27.6569 16.6261 23.3214 12.6519 17.9928 12.6519ZM17.9928 29.0066C13.4833 29.0066 9.81535 25.643 9.81535 21.5107C9.81535 17.3785 13.4833 14.0148 17.9928 14.0148C22.5022 14.0148 26.1701 17.3771 26.1701 21.5107C26.1701 25.643 22.5022 29.0066 17.9928 29.0066Z" fill="#868484"/>
</svg>
