<svg width="27" height="25" viewBox="0 0 27 25" fill="none" xmlns="http://www.w3.org/2000/svg">
<g clip-path="url(#clip0)">
<path d="M23.6251 18.7498H9.57312L3.66673 6.25001H0.00012207V4.6875H4.77096L10.6771 17.1875H23.6251V18.7498Z" fill="white"/>
<path d="M15.1877 22.6563C15.1877 23.95 14.0535 24.9999 12.6563 24.9999C11.2581 24.9999 10.1251 23.95 10.1251 22.6563C10.1251 21.3621 11.2581 20.3125 12.6563 20.3125C14.0535 20.3125 15.1877 21.3621 15.1877 22.6563Z" fill="white"/>
<path d="M23.6251 22.6563C23.6251 23.95 22.4913 24.9999 21.0941 24.9999C19.6964 24.9999 18.5627 23.95 18.5627 22.6563C18.5627 21.3621 19.6964 20.3125 21.0941 20.3125C22.4913 20.3125 23.6251 21.3621 23.6251 22.6563Z" fill="white"/>
<path d="M21.0941 12.5C17.798 12.5 15.0145 10.5347 13.9666 7.8125H8.43762L11.8128 15.625H23.6252L25.5732 11.1176C24.3142 11.9752 22.7734 12.5 21.0941 12.5Z" fill="white"/>
<path d="M21.0941 0C17.8327 0 15.1876 2.44903 15.1876 5.4688C15.1876 8.4884 17.8327 10.9376 21.0941 10.9376C24.3551 10.9376 27 8.48845 27 5.4688C27 2.44903 24.3552 0 21.0941 0ZM20.1992 8.23053L19.0059 7.12596L17.2162 5.4688L18.4096 4.36407L20.1992 6.02113L23.7786 2.70706L24.9715 3.81174L20.1992 8.23053Z" fill="white"/>
</g>
<defs>
<clipPath id="clip0">
<rect width="27" height="25" fill="white"/>
</clipPath>
</defs>
</svg>
