<svg width="51" height="44" viewBox="0 0 51 44" fill="none" xmlns="http://www.w3.org/2000/svg">
<g clip-path="url(#clip0)" filter="url(#filter0_i)">
<path d="M44.625 36.025V33H14.6625L16.575 29.975L45.9 27.5L51 11H11.7937L9.5625 2.75H0V5.5H7.0125L13.7063 28.6L9.5625 35.75V39.875C9.5625 42.075 11.7937 44 14.3438 44C16.8937 44 19.125 42.075 19.125 39.875C19.125 37.675 16.8937 35.75 14.3438 35.75H38.25V39.875C38.25 42.075 40.4813 44 43.0312 44C45.5812 44 47.8125 42.075 47.8125 39.875C47.8125 37.95 46.5375 36.575 44.625 36.025ZM12.75 13.75H46.8563L43.35 24.75L16.575 27.225L12.75 13.75Z" fill="#A4A2A2"/>
</g>
<defs>
<filter id="filter0_i" x="0" y="0" width="51" height="48" filterUnits="userSpaceOnUse" color-interpolation-filters="sRGB">
<feFlood flood-opacity="0" result="BackgroundImageFix"/>
<feBlend mode="normal" in="SourceGraphic" in2="BackgroundImageFix" result="shape"/>
<feColorMatrix in="SourceAlpha" type="matrix" values="0 0 0 0 0 0 0 0 0 0 0 0 0 0 0 0 0 0 127 0" result="hardAlpha"/>
<feOffset dy="4"/>
<feGaussianBlur stdDeviation="2"/>
<feComposite in2="hardAlpha" operator="arithmetic" k2="-1" k3="1"/>
<feColorMatrix type="matrix" values="0 0 0 0 0 0 0 0 0 0 0 0 0 0 0 0 0 0 0.25 0"/>
<feBlend mode="normal" in2="shape" result="effect1_innerShadow"/>
</filter>
<clipPath id="clip0">
<rect width="51" height="44" fill="white"/>
</clipPath>
</defs>
</svg>
