<svg width="23" height="25" viewBox="0 0 23 25" fill="none" xmlns="http://www.w3.org/2000/svg">
<path fill-rule="evenodd" clip-rule="evenodd" d="M17.2385 14.0525V10.9307H11.4928V7.80566H17.2385V4.68535L22.9856 9.36973L17.2385 14.0541V14.0525ZM14.3664 18.7369H8.61925V4.68379L2.875 1.56191H14.3678V6.24629H15.8053V1.56191C15.8053 0.702539 15.1584 0.000976562 14.3678 0.000976562H1.43606C1.05543 0.00180238 0.690602 0.166523 0.421452 0.459077C0.152303 0.751631 0.000759751 1.14818 0 1.56191L0 19.3307C0 19.94 0.31625 20.4713 0.790625 20.7525L8.61925 24.9994V20.2994H14.3664C15.157 20.2994 15.8039 19.5963 15.8039 18.7369V12.4932H14.3664V18.74V18.7369Z" fill="white"/>
</svg>
