<svg width="20" height="32" viewBox="0 0 20 32" fill="none" xmlns="http://www.w3.org/2000/svg">
<path d="M17.3397 30.5067L18.8013 28.9637C18.9964 28.7581 19.0902 28.5248 19.0831 28.2641C19.0761 28.004 18.9699 27.7762 18.7638 27.5815L6.6347 16.091L18.1242 3.9618C18.3194 3.75608 18.4131 3.52287 18.4061 3.26248C18.399 3.00199 18.2928 2.77419 18.0868 2.57944L16.5437 1.11796C16.3381 0.922774 16.1049 0.829025 15.8444 0.836076C15.5841 0.843122 15.3564 0.949665 15.1616 1.15538L1.53743 15.5373C1.34255 15.7429 1.2487 15.9762 1.25575 16.2366C1.2628 16.497 1.36912 16.7245 1.57483 16.9192L15.9571 30.5441C16.1628 30.7389 16.396 30.8321 16.6562 30.8251C16.9167 30.818 17.1445 30.7123 17.3397 30.5067Z" fill="#d1d1d1"/>
</svg>
