<svg width="30" height="30" viewBox="0 0 30 30" fill="none" xmlns="http://www.w3.org/2000/svg">
<path d="M8.05594 0.299757L6.55315 1.80266C6.35247 2.00292 6.25244 2.23361 6.25244 2.49441C6.25244 2.75458 6.35247 2.98516 6.55315 3.18542L18.3669 14.9998L6.55346 26.8137C6.35278 27.0141 6.25276 27.2447 6.25276 27.5052C6.25276 27.7658 6.35278 27.9963 6.55346 28.1966L8.05636 29.6993C8.25662 29.9 8.48721 30 8.7478 30C9.00818 30 9.23876 29.8997 9.43903 29.6993L23.4474 15.6913C23.6477 15.491 23.7479 15.2603 23.7479 14.9998C23.7479 14.7394 23.6477 14.5091 23.4474 14.3089L9.43903 0.299757C9.23866 0.0994968 9.00808 0 8.7478 0C8.48721 0 8.25663 0.0994968 8.05594 0.299757Z" fill="#d1d1d1"/>
</svg>
