<svg width="21" height="22" viewBox="0 0 21 22" fill="none" xmlns="http://www.w3.org/2000/svg">
<g clip-path="url(#clip0)">
<path d="M14.316 21.3883H6.56791C4.98961 21.3883 3.74609 19.9498 3.74609 18.2449V8.60163C3.74609 8.28196 3.9374 8.06885 4.22437 8.06885C4.51133 8.06885 4.70264 8.28196 4.70264 8.60163V18.2449C4.70264 19.4171 5.56354 20.3228 6.56791 20.3228H14.316C15.3682 20.3228 16.1812 19.3638 16.1812 18.2449V8.60163C16.1812 8.28196 16.3725 8.06885 16.6595 8.06885C16.9465 8.06885 17.1378 8.28196 17.1378 8.60163V18.2449C17.1378 19.9498 15.8464 21.3883 14.316 21.3883Z" fill="#868484"/>
<path d="M16.85 2.68777H13.2151C12.9759 1.19599 11.8281 0.0771484 10.4411 0.0771484C9.0541 0.0771484 7.90624 1.19599 7.6671 2.68777H4.03221C2.93218 2.68777 2.07129 3.64677 2.07129 4.87217C2.07129 6.09756 2.93218 7.00329 4.03221 7.00329H16.8978C17.9978 7.00329 18.8587 6.04428 18.8587 4.81889C18.8587 3.59349 17.95 2.68777 16.85 2.68777ZM10.4411 1.14271C11.302 1.14271 12.0194 1.78204 12.2107 2.68777H8.62365C8.86279 1.78204 9.5802 1.14271 10.4411 1.14271ZM16.85 5.93773H4.03221C3.50611 5.93773 3.02784 5.45822 3.02784 4.81889C3.02784 4.23283 3.45829 3.70005 4.03221 3.70005H16.8978C17.4239 3.70005 17.9022 4.17955 17.9022 4.81889C17.8543 5.45822 17.4239 5.93773 16.85 5.93773Z" fill="#868484"/>
<path d="M7.09351 18.7779C6.80654 18.7779 6.61523 18.5648 6.61523 18.2451V9.34772C6.61523 9.02805 6.80654 8.81494 7.09351 8.81494C7.38047 8.81494 7.57178 9.02805 7.57178 9.34772V18.2451C7.57178 18.5115 7.33265 18.7779 7.09351 18.7779Z" fill="#868484"/>
<path d="M13.7898 18.7779C13.5028 18.7779 13.3115 18.5648 13.3115 18.2451V9.34772C13.3115 9.02805 13.5028 8.81494 13.7898 8.81494C14.0768 8.81494 14.2681 9.02805 14.2681 9.34772V18.2451C14.2681 18.5115 14.0289 18.7779 13.7898 18.7779Z" fill="#868484"/>
<path d="M10.4412 18.7779C10.1542 18.7779 9.96289 18.5648 9.96289 18.2451V9.34772C9.96289 9.02805 10.1542 8.81494 10.4412 8.81494C10.7281 8.81494 10.9194 9.02805 10.9194 9.34772V18.2451C10.9194 18.5115 10.6803 18.7779 10.4412 18.7779Z" fill="#868484"/>
</g>
<defs>
<clipPath id="clip0">
<rect width="19.131" height="21.3112" fill="white" transform="translate(0.923828 0.0771484)"/>
</clipPath>
</defs>
</svg>
