<svg width="23" height="20" viewBox="0 0 23 20" fill="none" xmlns="http://www.w3.org/2000/svg">
<path d="M17.0648 9.67742H15.9519H8.16157C8.16157 9.54839 8.16157 9.48389 8.16157 9.35485V4.83873C8.16157 3.22584 9.64544 1.93552 11.5003 1.93552C13.3551 1.93552 14.839 3.22584 14.839 4.83873V5.48389V7.16131C14.839 7.80647 15.3583 8.3871 15.9519 8.3871C16.5454 8.3871 17.0648 7.87097 17.0648 7.16131V5.48389V4.83873C17.0648 2.19355 14.5422 0 11.5003 0C8.45835 0 5.93577 2.19355 5.93577 4.83873V9.67745C4.67446 9.67745 3.70996 10.5161 3.70996 11.6129V18.0645C3.70996 19.1613 4.67446 20 5.93577 20H17.0648C18.3261 20 19.2906 19.1613 19.2906 18.0645V11.6129C19.2906 10.5806 18.3261 9.67742 17.0648 9.67742ZM11.8713 14.7742V16.4516C11.8713 16.6452 11.7229 16.7742 11.5003 16.7742C11.2777 16.7742 11.1294 16.6452 11.1294 16.4516V14.7742C10.6842 14.6452 10.3874 14.258 10.3874 13.871C10.3874 13.3549 10.9068 12.9032 11.5003 12.9032C12.0939 12.9032 12.6133 13.3549 12.6133 13.871C12.6132 14.3226 12.3164 14.6452 11.8713 14.7742Z" fill="#919090" fill-opacity="0.71"/>
</svg>
