<svg width="21" height="19" viewBox="0 0 21 19" fill="none" xmlns="http://www.w3.org/2000/svg">
<path d="M19.2578 15.4835C19.2561 14.6285 18.6578 14.6085 17.9469 14.3202L14.6094 12.9868C14.5527 12.966 14.4936 12.936 14.4353 12.9135V12.9118C13.8453 12.6435 13.3202 12.2693 13.1286 12.011L13.1244 11.996L13.1227 11.9943C13.1086 11.9768 13.0927 11.9593 13.0861 11.9476L13.0819 11.9326L13.081 11.9293L13.0702 11.9151C12.9869 11.7818 12.8927 11.7201 12.8152 11.7534L12.8118 11.7543H12.8102L12.8077 11.7559L12.796 11.7601C12.7102 11.8126 12.7268 11.7559 12.691 11.6593C12.5985 11.4084 12.4468 10.9526 12.4252 10.8801C12.3885 10.7576 12.3026 11.0785 12.3226 10.7251L12.3618 10.091C12.421 10.0209 12.4684 9.96594 12.5026 9.93013C12.721 9.68595 12.7393 9.02597 12.8501 8.86765C12.9551 8.71014 13.1718 8.6735 13.3934 7.93015C13.6126 7.181 13.8726 6.11764 13.5959 6.10183C13.5234 6.09681 13.4434 6.14182 13.3651 6.21267C13.4176 5.93933 13.5193 5.31683 13.5409 4.86184C13.5751 4.25849 13.4759 2.70936 13.1301 2.14186C12.9159 1.78688 12.4843 1.43687 12.0534 1.1627C11.7951 0.997693 11.5426 0.862718 11.3268 0.771035C10.7009 0.491048 8.71514 0.618535 8.04763 0.771035C7.28513 0.940181 6.74762 1.41855 6.40681 1.98601C6.06513 2.55686 5.91016 4.2577 5.94015 4.861C5.9568 5.12848 6.11683 5.58682 6.15765 5.86685C6.1835 6.01353 6.20349 6.01353 6.22349 6.11517C6.19182 6.10434 6.16514 6.09769 6.13766 6.10099C5.86014 6.11601 6.12264 7.18016 6.3393 7.92848C6.56182 8.67266 6.77597 8.70846 6.88514 8.86598C6.99431 9.0235 7.01096 9.68348 7.22845 9.9293C7.26012 9.96598 7.31512 10.026 7.37677 10.0984L7.42178 10.6201L7.49179 10.9026C7.46013 10.8234 7.3943 10.766 7.36347 10.8801C7.26765 11.1676 7.17764 11.4493 7.08265 11.7351C7.07265 11.7192 7.05517 11.7142 7.04182 11.7142C6.94767 11.6267 6.82767 11.7001 6.7185 11.8901C6.5535 12.1626 6.00683 12.5584 5.37432 12.8384L5.36516 12.8767L5.35517 12.9101L5.35182 12.9267C5.30347 12.9459 5.25432 12.9667 5.19932 12.9859L1.86683 14.3192C1.15432 14.6092 0.555988 14.6276 0.555151 15.4826L0.00195312 18.381H20.002L19.2578 15.4835Z" fill="#919090"/>
</svg>
